<svg xmlns="http://www.w3.org/2000/svg" width="400" height="400"></svg>
<?xml version="1.0" encoding="UTF-8" standalone="no"?>
<!--
The lila Staunty pieces set from
https://github.com/ornicar/lila/tree/master/public/piece/staunty
modified by shaack (https://shaack.com) for the usage in cm-chessboard.
https://github.com/shaack/cm-chessboard

License: Attribution-NonCommercial-ShareAlike 4.0 International (CC BY-NC-SA 4.0)
https://creativecommons.org/licenses/by-nc-sa/4.0/

See also: https://github.com/ornicar/lila/blob/master/COPYING.md
-->
<svg xmlns="http://www.w3.org/2000/svg" width="40" height="40" viewBox="0 0 40 40">

    <title>cm-chessboard Staunty pieces and markers sprite</title>
    <g id="Sprite-Staunty">
        <g id="wk" transform="matrix(0.78030303,0,0,0.78030303,0.99250091,1.3663636)">
            <path d="m 27.67,15.225 v -3.544 h 4.44 V 7.252 H 27.175 V 3.36 H 22.81 v 3.893 h -4.934 v 4.43 h 4.44 v 3.543" fill="#f0f0f0" stroke-linecap="round" stroke-width="1.2" stroke="#1e1e1e" id="path1542"/>
            <rect x="20.299" y="14.215" width="9.3979998" height="2.7869999" ry="1.3940001" fill="#f0f0f0" stroke-linejoin="round" stroke-width="1.2" stroke="#1e1e1e" id="rect1544"/>
            <path d="m 26.416,14.215 c 0.725,0 1.308,0.621 1.308,1.393 0,0.773 -0.583,1.394 -1.308,1.394 h 1.974 c 0.724,0 1.308,-0.621 1.308,-1.393 0,-0.773 -0.584,-1.394 -1.308,-1.394 z" opacity="0.15" id="path1546"/>
            <path d="m 21.631,14.842 c -0.402,0 -0.725,0.345 -0.725,0.773 0,0.427 0.323,0.772 0.725,0.772 h 0.874 c -0.402,0 -0.725,-0.345 -0.725,-0.772 0,-0.428 0.323,-0.773 0.725,-0.773 z" fill="#ffffff" id="path1548"/>
            <path d="m 33.635,36.986 c 0,0 7.776,-13.318 6.613,-15.916 -1.164,-2.596 -8.48,-4.497 -15.248,-4.497 -6.768,0 -14.084,1.9 -15.248,4.497 -1.164,2.597 6.612,15.916 6.612,15.916 z" fill="#f0f0f0" stroke-linecap="round" stroke-width="1.2" stroke="#1e1e1e" id="path1550"/>
            <path d="m 24.996,16.576 c 15.938,2.622 12.573,9.354 6.64,22.543 l 2.028,-1.729 c 0,0 7.747,-13.723 6.584,-16.32 -1.545,-2.833 -7.503,-4.159 -15.252,-4.494 z" opacity="0.15" id="path1552"/>
            <path d="m 23.765,17.295 c -3.904,-0.184 -14.621,1.801 -13.503,5.017 0.817,3.727 2.754,7.244 4.508,10.504 C 9.083,22.481 8.828,19.042 23.765,17.295 Z M 23.391,3.997 23.375,7.309 h 0.546 l 0.016,-3.312 z m -4.931,3.87 -0.008,3.208 h 0.774 l 0.007,-3.208 z m 4.413,3.213 0.025,2.486 h 0.52 L 23.393,11.08 Z" fill="#ffffff" id="path1554"/>
            <path d="m 26.189,3.358 v 3.894 h 0.987 V 3.358 Z m 4.441,3.894 v 4.945 h 1.48 V 7.252 Z m -4.44,4.429 v 2.492 h 1.48 v -2.492 z" opacity="0.15" id="path1556"/>
            <path d="m 25,36.457 c 0,0 -9.13,0.048 -11.691,1.62 -1.727,1.06 -2.135,3.65 -1.9,6.323 h 27.182 c 0.235,-2.672 -0.172,-5.264 -1.9,-6.324 -2.56,-1.57 -11.69,-1.619 -11.69,-1.619 z" fill="#f0f0f0" stroke-linejoin="round" stroke-width="1.2" stroke="#1e1e1e" id="path1558"/>
            <path d="m 25,37.147 c 0,0 -8.712,-0.137 -11.624,1.666 -0.37,0.229 -0.7,0.84 -0.954,1.39 0.261,-0.331 0.503,-0.613 0.887,-0.849 2.56,-1.571 11.691,-1.62 11.691,-1.62 0,0 9.132,0.049 11.692,1.62 0.391,0.24 0.592,0.532 0.856,0.87 0.025,-0.076 -0.409,-1.158 -1.144,-1.596 C 33.648,37.136 25,37.148 25,37.148 Z" fill="#ffffff" id="path1560"/>
        </g>
        <g id="wq" transform="matrix(0.81370661,0,0,0.81370661,0.1573347,-0.13679755)">
            <path d="m 24.959,5.094 a 2.958,3.316 90 0 0 -3.316,2.958 2.958,3.316 90 0 0 3.316,2.959 2.958,3.316 90 0 0 3.316,-2.959 2.958,3.316 90 0 0 -3.316,-2.958 z" fill="#f0f0f0" stroke-linecap="round" stroke-linejoin="round" stroke-width="1.2" stroke="#1e1e1e" id="path1856"/>
            <path d="M 24.836,5.732 C 24.46,5.522 21.112,6.538 22.651,9.308 22.416,7.763 23.089,6.105 24.836,5.732 Z" fill="#ffffff" id="path1858"/>
            <path d="m 24.959,11.011 c -6.507,0 -9.595,5.884 -9.595,10.358 h 19.263 c 0,-4.474 -3.16,-10.358 -9.668,-10.358 z" fill="#f0f0f0" stroke-linecap="round" stroke-linejoin="round" stroke-width="1.2" stroke="#1e1e1e" id="path1860"/>
            <path d="m 18.161,14.977 c 1.042,-1.478 2.92,-3.22 6.84,-3.38 -0.31,0.277 -4.788,1.138 -6.84,3.38 z" fill="#ffffff" id="path1862"/>
            <path d="m 24.836,5.007 c 0,0 0.046,0.238 0,0 2.48,1.129 2.05,3.847 0.817,5.547 7.354,3.803 2.213,8.669 2.212,8.668 h 2.701 c 1.762,1.287 7.209,-2.741 -3.835,-8.67 3.528,-3.115 0.097,-5.606 -1.895,-5.546 z" opacity="0.15" id="path1864"/>
            <path d="m 25,15.225 c -1.971,0 -2.348,2.65 -4.137,2.86 -1.82,0.213 -3.381,-2.312 -5.25,-1.737 -1.495,0.46 -0.778,2.6 -1.805,3.175 -1.402,0.785 -3.185,-1.832 -5.29,-0.298 6.838,8.829 8.085,12.377 7.983,18.819 h 16.998 c -0.103,-6.443 1.144,-9.99 7.983,-18.82 -2.106,-1.533 -3.889,1.084 -5.29,0.3 -1.027,-0.576 -0.311,-2.716 -1.806,-3.176 -1.868,-0.575 -3.429,1.95 -5.25,1.736 -1.789,-0.21 -2.166,-2.86 -4.137,-2.86 z" fill="#f0f0f0" stroke-linecap="round" stroke-linejoin="round" stroke-width="1.2" stroke="#1e1e1e" id="path1866"/>
            <path d="m 9.895,19.34 c -0.136,-0.01 -0.331,0.056 -0.458,0.085 3.081,4.1 6.575,9.537 7.099,12.417 -1.407,-4.933 -3.267,-9.562 -6.14,-12.472 z" fill="#ffffff" id="path1868"/>
            <path d="M 39.974,18.735 C 30.489,28.738 30.05,36.72 23.033,38.045 h 10.476 c -0.103,-6.443 1.145,-9.99 7.983,-18.819 0,0 -0.688,-0.756 -1.518,-0.491 z" opacity="0.15" id="path1870"/>
            <path d="m 14.912,18.945 c 0.203,-0.088 1.184,-1.808 1.98,-1.95 -1.42,-0.346 -1.618,-0.046 -1.98,1.95 z m 7.599,-1.069 c 0.953,-0.847 1.633,-2.655 3.238,-1.845 -0.798,-0.23 -2.215,1.04 -3.238,1.845 z m 8.609,0.257 c 0.21,0.07 2.176,-1.642 2.862,-1.218 0,0 -1.43,1.12 -2.862,1.218 z" fill="#ffffff" id="path1872"/>
            <path d="m 25,36.457 c 0,0 -9.13,0.048 -11.691,1.62 -1.727,1.06 -2.135,3.65 -1.9,6.323 h 27.182 c 0.235,-2.672 -0.172,-5.264 -1.9,-6.324 -2.56,-1.571 -11.69,-1.62 -11.69,-1.62 z" fill="#f0f0f0" stroke-linejoin="round" stroke-width="1.2" stroke="#1e1e1e" id="path1874"/>
            <path d="m 25,37.147 c 0,0 -8.712,-0.137 -11.624,1.666 -0.37,0.229 -0.7,0.84 -0.954,1.39 0.261,-0.331 0.502,-0.613 0.887,-0.849 2.56,-1.571 11.691,-1.62 11.691,-1.62 0,0 9.132,0.049 11.692,1.62 0.391,0.24 0.593,0.532 0.856,0.87 0.026,-0.076 -0.409,-1.158 -1.144,-1.596 C 33.648,37.136 25,37.147 25,37.147 Z" fill="#ffffff" id="path1876"/>
        </g>
        <g id="wb" transform="matrix(0.77573871,0,0,0.77573871,1.1065042,1.5417581)">
            <path d="m 25,5.767 c -2.106,0 -3.812,0.879 -3.812,1.963 l 1.517,2.65 C 6.655,24.47 16.998,37.516 16.998,37.516 h 16.005 c 0,0 7.05,-8.672 0.763,-19.51 l -2.99,4.827 c -0.67,1.084 -1.962,1.49 -2.897,0.911 -0.935,-0.578 -1.147,-1.917 -0.477,-3 l 3.887,-6.277 a 35.382,35.382 0 0 0 -3.993,-4.086 l 1.517,-2.65 c 0,-1.085 -1.707,-1.964 -3.812,-1.964 z" fill="#f0f0f0" stroke-linejoin="round" stroke-width="1.2" stroke="#1e1e1e" id="path1449"/>
            <path d="m 25,5.767 c -0.816,0 -1.571,0.134 -2.191,0.358 4.338,0.848 4.976,1.12 2.56,4.351 l 3.246,3.567 c -3.657,8.24 -1.604,7.991 -1.604,7.991 0,0 0.696,-2.648 4.112,-7.768 A 35.696,35.696 0 0 0 27.296,10.38 L 28.812,7.73 C 28.812,6.646 27.106,5.767 25,5.767 Z m 8.765,12.238 -1.009,1.513 c 3.737,8.413 -4.134,17.997 -4.134,17.997 h 4.381 c 0.158,0.034 6.958,-8.844 0.762,-19.51 z" opacity="0.15" id="path1451"/>
            <path d="M 15.145,31.721 C 14.925,31.69 11.722,21.935 20.899,12.97 18.597,14.865 13.764,26.133 15.145,31.721 Z M 23.292,10.196 21.815,7.602 c 0,0 0.242,-0.722 1.78,-1.048 -1.726,1.35 -0.987,1.663 -0.303,3.642 z" fill="#ffffff" id="path1453"/>
            <path d="m 25,36.457 c 0,0 -9.13,0.048 -11.691,1.62 -1.727,1.06 -2.135,3.65 -1.9,6.323 h 27.182 c 0.235,-2.672 -0.172,-5.264 -1.9,-6.324 -2.56,-1.57 -11.69,-1.619 -11.69,-1.619 z" fill="#f0f0f0" stroke-linejoin="round" stroke-width="1.2" stroke="#1e1e1e" id="path1455"/>
            <path d="m 25,37.147 c 0,0 -8.712,-0.137 -11.624,1.666 -0.37,0.229 -0.7,0.84 -0.954,1.39 0.261,-0.331 0.502,-0.613 0.887,-0.85 C 15.869,37.784 25,37.736 25,37.736 c 0,0 9.132,0.048 11.692,1.619 0.391,0.24 0.592,0.532 0.856,0.87 0.026,-0.076 -0.409,-1.158 -1.144,-1.596 C 33.648,37.136 25,37.147 25,37.147 Z" fill="#ffffff" id="path1457"/>
        </g>
        <g id="wn" transform="matrix(0.7833885,0,0,0.78330159,1.0320312,1.1996996)">
            <path d="m 25.192,23.015 c -0.165,6.967 -11.758,5.219 -11.516,18.104 l 22.86,0.118 C 34.442,34.795 46.226,16.077 24.605,8.979 v 0 c 0,0 -2.438,-2.6 -5.965,-2.823 l 0.222,3.534 -4.558,4.582 c -2.63,3.145 -8.735,8.378 -7.751,9.611 3.115,5.304 6.33,4.432 6.33,4.432 4.242,-4.544 5.82,-2.09 12.31,-5.3 z" fill="#f0f0f0" stroke="#1e1e1e" stroke-linejoin="round" stroke-width="1.2" id="path1668"/>
            <path d="m 19.32,14.694 c -0.776,0.86 -0.69,1.116 -0.814,2.15 0.806,0.123 1.507,0.24 2.249,0.066 2.38,-1.262 0.075,-3.403 -1.435,-2.216 z" opacity="0.35" id="path1670"/>
            <path d="m 9.192,22.166 c -0.85,0.408 -0.999,0.96 -1.057,1.475 0.729,0.419 1.877,-0.125 2.041,-1.431 z" opacity="0.3" id="path1672"/>
            <path d="m 8.19,25.15 c 0,0 0.653,1.137 -1.101,-1.641 0.659,-1.977 8.263,-9.08 12.438,-13.534 L 19.343,6.889 c 0,0 1.069,1.69 1.248,3.468 C 16.2,14.747 8.37,21.19 7.767,23.57 c 0.023,0.674 0.24,1.028 0.423,1.58 z" fill="#ffffff" id="path1674"/>
            <path d="m 13.26,28.257 c 2.03,-3.337 8.391,-3.224 11.932,-5.242 0.323,0.102 0.13,1.37 0.24,1.23 0.847,-1.09 2.926,-3.28 0.868,-6.875 0.522,5.958 -13.718,5.591 -15.89,10.305 -0.2,0.436 2.182,0.793 2.85,0.582 z" opacity="0.15" id="path1676"/>
            <path d="M 25.8,23.781 C 24.787,29.594 16.255,29.898 14.812,36.422 17.645,30.016 25.574,30.708 25.8,23.781 Z" fill="#ffffff" id="path1678"/>
            <path d="m 18.64,6.156 c 0,0 3.051,0.738 4.904,3.982 20.5,7.154 7.642,27.937 5.789,31.073 l 7.203,0.026 C 34.55,37.994 46.084,15.64 24.606,8.98 22.83,7.91 21.837,6.37 18.64,6.155 Z" opacity="0.15" id="path1680"/>
            <path d="m 25,36.457 c 0,0 -9.13,0.048 -11.691,1.62 -1.727,1.06 -2.135,3.65 -1.9,6.323 h 27.182 c 0.235,-2.672 -0.172,-5.264 -1.9,-6.324 -2.56,-1.57 -11.69,-1.619 -11.69,-1.619 z" fill="#f0f0f0" stroke="#1e1e1e" stroke-linejoin="round" stroke-width="1.2" id="path1682"/>
            <path d="m 25,37.147 c 0,0 -8.712,-0.137 -11.624,1.666 -0.37,0.229 -0.7,0.84 -0.954,1.39 0.261,-0.331 0.503,-0.613 0.887,-0.849 C 15.87,37.783 25,37.734 25,37.734 c 0,0 9.132,0.049 11.692,1.62 0.391,0.24 0.592,0.532 0.856,0.87 0.026,-0.076 -0.409,-1.158 -1.144,-1.596 C 33.648,37.136 25,37.148 25,37.148 Z" fill="#ffffff" id="path1684"/>
        </g>
        <g id="wr" transform="matrix(0.84246687,0,0,0.84246687,-1.0662673,-1.4610091)">
            <path d="m 17.932,20.414 c 4.906,-0.74 9.579,-0.578 14.136,0 M 14.183,9.662 c -1.06,8.767 1.103,10.677 3.748,10.752 L 14.616,38.573 H 35.383 L 32.067,20.414 c 2.645,-0.074 4.808,-1.985 3.749,-10.752 l -3.608,-0.53 -1.073,3.644 -3.142,-0.1 -0.522,-3.754 h -4.945 l -0.52,3.754 -3.143,0.1 -1.073,-3.643 z" fill="#f0f0f0" stroke-width="1.2" stroke="#1e1e1e" id="path1983"/>
            <path d="m 17.932,20.414 c 6.828,0 13.118,0.408 14.948,16.572 l 2.319,0.386 -3.131,-16.428 C 32.036,20.636 25.98,19.121 17.932,20.414 Z" opacity="0.15" id="path1985"/>
            <path d="m 14.777,10.219 2.277,-0.286 c -1.914,0.312 -2.313,5.296 -2.313,5.296 -0.238,-0.177 -0.188,-4.903 0.036,-5.01 z M 25.276,9.55 c -1.648,0 -2.52,2.748 -2.52,2.748 l 0.338,-2.729 z m 7.395,0.266 0.934,0.118 c -0.785,0.5 -1.59,1.989 -1.59,1.989 z m -14.199,11.148 2.62,-0.293 c -2.62,0.293 -4.888,13.113 -4.888,13.113 z" fill="#ffffff" id="path1987"/>
            <path d="m 34.013,9.398 c 0.357,6.363 -1.95,10.603 -8.041,10.536 l 4.777,0.563 c 7.523,0.31 5.101,-10.806 5.068,-10.835 z" opacity="0.15" id="path1989"/>
            <path d="m 25,36.457 c 0,0 -9.13,0.048 -11.691,1.62 -1.727,1.06 -2.135,3.65 -1.9,6.323 h 27.182 c 0.235,-2.672 -0.172,-5.264 -1.9,-6.324 -2.56,-1.57 -11.69,-1.619 -11.69,-1.619 z" fill="#f0f0f0" stroke-linejoin="round" stroke-width="1.2" stroke="#1e1e1e" id="path1991"/>
            <path d="m 25,37.146 c 0,0 -8.712,-0.137 -11.624,1.666 -0.37,0.229 -0.7,0.84 -0.954,1.39 0.261,-0.331 0.503,-0.613 0.887,-0.849 C 15.87,37.782 25,37.733 25,37.733 c 0,0 9.132,0.049 11.692,1.62 0.391,0.24 0.592,0.532 0.856,0.87 0.025,-0.076 -0.409,-1.158 -1.144,-1.596 C 33.648,37.135 25,37.147 25,37.147 Z" fill="#ffffff" id="path1993"/>
        </g>
        <g id="wp" transform="matrix(0.82029849,0,0,0.82029849,-0.5120331,-0.50721691)">
            <path d="m 21.503,27.594 h 6.994 M 19,17.508 c 0,1.732 0.712,3.387 1.966,4.587 l -3.65,2.1 0.43,3.399 h 4.306 c -0.794,3.559 -2.755,7.33 -5.062,8.617 -2.307,1.287 -5.3,3.097 -4.843,8.189 h 25.706 c 0.457,-5.092 -2.535,-6.902 -4.842,-8.189 -2.307,-1.286 -4.268,-5.058 -5.062,-8.617 h 4.306 l 0.43,-3.4 -3.65,-2.099 a 6.352,6.352 0 0 0 1.966,-4.587 c 0,-3.367 -2.628,-5.912 -6,-5.912 -3.373,0 -6.002,2.545 -6.001,5.912 z" fill="#f0f0f0" stroke-linejoin="round" stroke-width="1.2" stroke="#1e1e1e" id="path1775"/>
            <path d="m 24.962,11.537 c 1.17,-0.459 9.527,5.906 0.647,10.773 l 4.512,2.1 -0.562,3.125 h 2.659 l 0.428,-3.399 -3.65,-2.1 c 1.253,-1.2 1.962,-2.58 1.964,-4.312 -0.468,-5.416 -5.998,-6.186 -5.998,-6.186 z m -2.949,15.998 c 4.503,7.934 9.47,9.994 13.074,9.965 L 32.972,36.153 C 30.897,34.663 28.24,31.295 27.91,27.535 Z" opacity="0.15" id="path1777"/>
            <path d="m 21.983,22.213 -1.647,2.347 -2.356,-0.014 4.013,-2.324 z m 2.324,-9.946 c -2.542,0.138 -5.73,3.173 -4.385,6.918 l 0.199,0.643 c -0.33,-3.489 2.127,-7.116 4.186,-7.561 z m -6.444,25.358 c -3.984,2.305 -5.117,6.14 -5.117,6.14 -0.01,0 -0.548,-4.175 3.956,-6.654 4.504,-2.479 4.822,-6.15 5.86,-8.893 -0.636,3.704 -0.715,7.102 -4.699,9.407 z" fill="#ffffff" id="path1779"/>
        </g>
        <g id="bk" transform="matrix(0.78030303,0,0,0.78030303,0.4879357,1.3663636)"><svg width="50mm" height="50mm" clip-rule="evenodd" fill-rule="evenodd" image-rendering="optimizeQuality" shape-rendering="geometricPrecision" text-rendering="geometricPrecision" version="1.1" viewBox="0 0 50 50" xmlns="http://www.w3.org/2000/svg" xmlns:xlink="http://www.w3.org/1999/xlink">
         <defs>
          <linearGradient id="linearGradient3655" x1="-634.64" x2="-621.56" y1="80.576" y2="80.576" gradientTransform="matrix(.80851 0 0 1.0928 532.83 -78.564)" gradientUnits="userSpaceOnUse" xlink:href="#linearGradient3800"/>
          <linearGradient id="linearGradient3800">
           <stop style="stop-color:#c23014" offset="0"/>
           <stop style="stop-color:#171717" offset="1"/>
          </linearGradient>
          <linearGradient id="linearGradient5752-0" x1="-643.74" x2="-612.47" y1="96.732" y2="96.732" gradientTransform="translate(653.11 -70.509)" gradientUnits="userSpaceOnUse" xlink:href="#linearGradient3800"/>
          <linearGradient id="linearGradient5754-4" x1="-14.174" x2="12.677" y1="509.16" y2="509.16" gradientTransform="translate(25.749 -468.73)" gradientUnits="userSpaceOnUse" xlink:href="#linearGradient3800"/>
         </defs>
         <path d="m22.968 12.421h5.4717m-3.437-9.2288s-3.7622 4.1018-3.7895 6.0178c0.0016 1.3179 0.66536 2.5231 1.7548 3.2109h-1.405c-0.75576 0-1.364 0.79205-1.364 1.7755 0 0.98344 0.60822 1.7749 1.364 1.7749h6.8767c0.75574 0 1.364-0.79146 1.364-1.7749 0-0.98348-0.60821-1.7755-1.364-1.7755h-1.4023c1.0894-0.68787 1.753-1.8931 1.7548-3.2109-0.02717-1.916-3.7895-6.0178-3.7895-6.0178z" style="fill:url(#linearGradient3655);stroke-linejoin:round;stroke-width:1.2;stroke:#000000"/>
         <path d="m25.003 3.192s0.52373-0.63263-1.6e-5 0c0.06565 3.2342 4.2151 6.9458 0.18595 9.943h1.4023c0.75576 0 1.364 0.07792 1.364 1.0613 2.4e-5 0.98348-0.60819 1.7749-1.364 1.7749h-1.5639c-0.29732 0.10633-0.61591 0.18914-0.94872 0.2455 0.29761 0.05038 0.6064 0.07999 0.92436 0.07999 0.67347 0 1.3099-0.1241 1.8731-0.32536h1.5639c0.75574 0 1.364-0.7915 1.3639-1.7749 0-0.98348-0.61704-1.9257-1.3639-1.7755l-1.4023 0.28195c1.0894-0.68788 1.753-2.175 1.7548-3.4929-0.02717-1.916-3.7895-6.0178-3.7895-6.0178z" style="clip-rule:evenodd;fill-rule:evenodd;fill:#000000;image-rendering:optimizeQuality;opacity:.2;paint-order:normal;shape-rendering:geometricPrecision"/>
         <path d="m39.886 20.265c-1.3821-3.1365-7.3803-5.3353-14.886-5.3353-7.5053 0-13.504 2.1988-14.886 5.3353-1.3819 3.1358 7.6143 17.25 7.6143 17.25h14.543s8.9963-14.114 7.6142-17.25z" style="clip-rule:evenodd;fill-rule:evenodd;fill:url(#linearGradient5752-0);image-rendering:optimizeQuality;shape-rendering:geometricPrecision;stroke-linejoin:round;stroke-width:1.2;stroke:#000000"/>
         <path d="m27.739 14.984c14.749 4.2518 2.2698 21.326-4.1617 22.462l8.6934 0.0698s8.9969-15.193 7.6149-18.329c-1.0403-2.7002-6.2899-4.0308-12.147-4.2032z" style="fill:#000000;opacity:.2;paint-order:normal"/>
         <path d="m25 36.457s-8.5779 0.0481-10.983 1.6192c-1.6227 1.0602-2.0055 3.6514-1.7848 6.3237h25.536c0.22073-2.6723-0.16211-5.2636-1.7848-6.3237-2.4047-1.5711-10.983-1.6192-10.983-1.6192z" style="clip-rule:evenodd;fill-rule:evenodd;fill:url(#linearGradient5754-4);image-rendering:optimizeQuality;shape-rendering:geometricPrecision;stroke-linejoin:round;stroke-width:1.2;stroke:#000000"/>
         <path d="m25 36.457s-8.5782 0.0479-10.983 1.619c-1.6227 1.0602-2.0054 2.593-1.7846 5.2653h0.084c0.22762-1.3799 0.75027-2.5278 1.7006-3.1486 2.4051-1.5711 10.983-1.619 10.983-1.619s8.5785 0.0479 10.983 1.619c0.95033 0.62083 1.4729 1.7688 1.7006 3.1486h0.08399c0.22072-2.6723-0.16186-4.2052-1.7846-5.2653-2.4047-1.5711-10.983-1.619-10.983-1.619z" style="clip-rule:evenodd;fill-rule:evenodd;fill:#000000;image-rendering:optimizeQuality;opacity:.2;shape-rendering:geometricPrecision"/>
         <path d="m23.97 15.595c-3.8847-0.25301-14.106 1.8423-13.321 6.2404 0.81724 3.7274 2.9181 7.0803 4.6722 10.341-5.1529-10.335-5.7637-14.834 8.6487-16.581z" style="clip-rule:evenodd;fill-rule:evenodd;fill:#ffffff;image-rendering:optimizeQuality;opacity:.25;shape-rendering:geometricPrecision"/>
         <path d="m25.106 4.0522c-1.7282 1.8382-2.5624 3.2391-3.052 4.2336-0.40163 0.81579-0.33025 1.1502-0.23112 1.6103 0.17085 0.793 0.74237 1.4189 0.91315 1.5469-0.8249-0.74481-0.85437-3.9774 2.3651-7.4144" style="fill:#ffffff;opacity:.25"/>
         <path d="m20.761 14.555s-0.19294-1.3739 0.76005-1.4324c0.95298-0.0585 2.9934 0 2.9934 0s-3.1279-0.17539-3.7535 1.4324z" style="fill:#ffffff;opacity:.25"/>
        </svg></g>
            <g id="bq" transform="matrix(0.81370661,0,0,0.81370661,-0.34679558,-0.13679747)">
            <path d="m 24.959,5.094 a 2.958,3.316 90 0 0 -3.316,2.958 2.958,3.316 90 0 0 3.316,2.959 2.958,3.316 90 0 0 3.316,-2.959 2.958,3.316 90 0 0 -3.316,-2.958 z" fill="#5f5955" stroke-linecap="round" stroke-linejoin="round" stroke-width="1.2" stroke="#010101" id="path1232"/>
            <path d="M 24.836,5.732 C 24.46,5.522 21.112,6.538 22.651,9.308 22.416,7.763 23.089,6.105 24.836,5.732 Z" fill="#ffffff" opacity="0.25" id="path1234"/>
            <path d="m 24.959,11.011 c -6.507,0 -9.595,5.884 -9.595,10.358 h 19.263 c 0,-4.474 -3.16,-10.358 -9.668,-10.358 z" fill="#5f5955" stroke-linecap="round" stroke-linejoin="round" stroke-width="1.2" stroke="#010101" id="path1236"/>
            <path d="m 18.161,14.977 c 1.042,-1.478 2.92,-3.22 6.84,-3.38 -0.31,0.277 -4.788,1.138 -6.84,3.38 z" fill="#ffffff" opacity="0.25" id="path1238"/>
            <path d="m 24.836,5.007 c 0,0 0.046,0.238 0,0 2.48,1.129 2.05,3.847 0.817,5.547 7.354,3.803 2.213,8.669 2.212,8.668 h 2.701 c 1.762,1.287 7.209,-2.741 -3.835,-8.67 3.528,-3.115 0.097,-5.606 -1.895,-5.546 z" opacity="0.18" id="path1240"/>
            <path d="m 25,15.225 c -1.971,0 -2.348,2.65 -4.137,2.86 -1.82,0.213 -3.381,-2.312 -5.25,-1.737 -1.495,0.46 -0.778,2.6 -1.805,3.175 -1.402,0.785 -3.185,-1.832 -5.29,-0.298 6.838,8.829 8.085,12.377 7.983,18.819 h 16.998 c -0.103,-6.443 1.144,-9.99 7.983,-18.82 -2.106,-1.533 -3.889,1.084 -5.29,0.3 -1.027,-0.576 -0.311,-2.716 -1.806,-3.176 -1.868,-0.575 -3.429,1.95 -5.25,1.736 -1.789,-0.21 -2.166,-2.86 -4.137,-2.86 z" fill="#5f5955" stroke-linecap="round" stroke-linejoin="round" stroke-width="1.2" stroke="#010101" id="path1242"/>
            <path d="m 9.895,19.34 c -0.136,-0.01 -0.331,0.056 -0.458,0.085 3.081,4.1 6.575,9.537 7.099,12.417 -1.407,-4.933 -3.267,-9.562 -6.14,-12.472 z" fill="#ffffff" opacity="0.25" id="path1244"/>
            <path d="M 39.974,18.735 C 30.489,28.738 30.05,36.72 23.033,38.045 h 10.476 c -0.103,-6.443 1.145,-9.99 7.983,-18.819 0,0 -0.688,-0.756 -1.518,-0.491 z" opacity="0.18" id="path1246"/>
            <path d="m 14.912,18.945 c 0.203,-0.088 1.184,-1.808 1.98,-1.95 -1.42,-0.346 -1.618,-0.046 -1.98,1.95 z m 7.599,-1.069 c 0.953,-0.847 1.633,-2.655 3.238,-1.845 -0.798,-0.23 -2.215,1.04 -3.238,1.845 z m 8.609,0.257 c 0.21,0.07 2.176,-1.642 2.862,-1.218 0,0 -1.43,1.12 -2.862,1.218 z" fill="#ffffff" opacity="0.25" id="path1248"/>
            <path d="m 25,36.457 c 0,0 -9.13,0.048 -11.691,1.62 -1.727,1.06 -2.135,3.65 -1.9,6.323 h 27.182 c 0.235,-2.672 -0.172,-5.264 -1.9,-6.324 -2.56,-1.571 -11.69,-1.62 -11.69,-1.62 z" fill="#5f5955" stroke-linejoin="round" stroke-width="1.2" stroke="#010101" id="path1250"/>
            <path d="m 25,37.147 c 0,0 -8.712,-0.137 -11.624,1.666 -0.37,0.229 -0.7,0.84 -0.954,1.39 0.261,-0.331 0.502,-0.613 0.887,-0.849 2.56,-1.571 11.691,-1.62 11.691,-1.62 0,0 9.132,0.049 11.692,1.62 0.391,0.24 0.593,0.532 0.856,0.87 0.026,-0.076 -0.409,-1.158 -1.144,-1.596 C 33.648,37.136 25,37.147 25,37.147 Z" fill="#ffffff" opacity="0.25" id="path1252"/>
        </g>
        <g id="bb" transform="matrix(0.20524753,0,0,0.20524753,-31.754618,-4.5982875)">
            <svg width="50mm" height="50mm" clip-rule="evenodd" fill-rule="evenodd" image-rendering="optimizeQuality" shape-rendering="geometricPrecision" text-rendering="geometricPrecision" version="1.1" viewBox="0 0 50 50" xmlns="http://www.w3.org/2000/svg" xmlns:xlink="http://www.w3.org/1999/xlink">
             <defs>
              <linearGradient id="linearGradient5764" x1="-657.83" x2="-639.01" y1="113.63" y2="113.63" gradientTransform="matrix(1.2079 0 0 1.0576 808.26 -95.246)" gradientUnits="userSpaceOnUse" xlink:href="#linearGradient3800"/>
              <linearGradient id="linearGradient3800">
               <stop style="stop-color:#c23014" offset="0"/>
               <stop style="stop-color:#171717" offset="1"/>
              </linearGradient>
              <linearGradient id="linearGradient5766" x1="-49.253" x2="-22.402" y1="508.57" y2="508.57" gradientTransform="translate(60.827 -468.14)" gradientUnits="userSpaceOnUse" xlink:href="#linearGradient3800"/>
             </defs>
             <ellipse cx="24.704" cy="9.2521" rx="2.5133" ry="2.5242" style="fill:#cbbc87;paint-order:normal;stroke-linecap:round;stroke-linejoin:round;stroke-width:1.2;stroke:#000000"/>
             <path d="m24.704 6.7281a2.5133 2.5242 0 0 0-0.87999 0.16116 2.5133 2.5242 0 0 1 1.6377 2.3627 2.5133 2.5242 0 0 1-1.6337 2.3627 2.5133 2.5242 0 0 0 0.87598 0.1618 2.5133 2.5242 0 0 0 2.5131-2.5245 2.5133 2.5242 0 0 0-2.5131-2.5239z" style="fill:#000000;opacity:.2;paint-order:normal"/>
             <path d="m18.771 38.045s-13.46-25.8 6.2297-26.216c19.69 0.41613 6.2298 26.216 6.2298 26.216z" style="fill:url(#linearGradient5764);stroke-linejoin:round;stroke-width:1.2;stroke:#000000"/>
             <path d="m24.704 11.829c-0.57733 0.01216-1.1228 0.04823-1.6425 0.1028 16.223-0.58529 9.8268 22.905 0.90913 26.113l7.2596-8.57e-4c8.9615-17.768 5.6701-25.493-6.5263-26.215z" style="fill:#000000;opacity:.2"/>
             <path d="m25 36.457s-8.5779 0.0481-10.983 1.6192c-1.6227 1.0602-2.0055 3.6514-1.7848 6.3237h25.536c0.22073-2.6723-0.16211-5.2636-1.7848-6.3237-2.4047-1.5711-10.983-1.6192-10.983-1.6192z" style="clip-rule:evenodd;fill-rule:evenodd;fill:url(#linearGradient5766);image-rendering:optimizeQuality;shape-rendering:geometricPrecision;stroke-linejoin:round;stroke-width:1.2;stroke:#000000"/>
             <path d="m25 36.457s-8.5782 0.0479-10.983 1.619c-1.6227 1.0602-2.0054 2.593-1.7846 5.2653h0.084c0.22762-1.3799 0.75027-2.5278 1.7006-3.1486 2.4051-1.5711 10.983-1.619 10.983-1.619s8.5785 0.0479 10.983 1.619c0.95033 0.62083 1.4729 1.7688 1.7006 3.1486h0.08399c0.22072-2.6723-0.16186-4.2052-1.7846-5.2653-2.4047-1.5711-10.983-1.619-10.983-1.619z" style="clip-rule:evenodd;fill-rule:evenodd;fill:#000000;image-rendering:optimizeQuality;opacity:.2;shape-rendering:geometricPrecision"/>
             <path d="m17.743 34.208s-4.6865-15.803 2.7362-21.094c-5.123 1.0213-7.9076 8.902-2.7362 21.094z" style="fill:#ffffff;opacity:.25"/>
             <path d="m24.543 7.3443c-0.84655-0.062469-2.8159 1.4917-1.0735 3.398-0.41661-1.4941-0.12428-2.6547 1.0735-3.398z" style="clip-rule:evenodd;fill-rule:evenodd;fill:#ffffff;image-rendering:optimizeQuality;shape-rendering:geometricPrecision"/>
            </svg></g>
        <g id="bn" transform="matrix(0.78338919,0,0,0.78338919,0.92902684,1.1976777)">
            <path d="m 25.192,23.015 c -0.165,6.967 -11.758,5.219 -11.516,18.104 l 22.86,0.118 C 34.442,34.795 46.226,16.077 24.605,8.979 v 0 c 0,0 -2.438,-2.6 -5.965,-2.823 l 0.222,3.534 -4.558,4.582 c -2.63,3.145 -8.735,8.378 -7.751,9.611 3.115,5.304 6.33,4.432 6.33,4.432 4.242,-4.544 5.82,-2.09 12.31,-5.3 z" fill="#5f5955" stroke="#010101" stroke-linejoin="round" stroke-width="1.2" id="path974"/>
            <path d="m 19.32,14.694 c -0.776,0.86 -0.69,1.116 -0.814,2.15 0.806,0.123 1.507,0.24 2.249,0.066 2.38,-1.262 0.075,-3.403 -1.435,-2.216 z" opacity="0.4" id="path976"/>
            <path d="m 9.192,22.166 c -0.85,0.408 -0.999,0.96 -1.057,1.475 0.729,0.419 1.877,-0.125 2.041,-1.431 z" opacity="0.35" id="path978"/>
            <path d="m 8.19,25.15 c 0,0 0.653,1.137 -1.101,-1.641 0.659,-1.977 8.263,-9.08 12.438,-13.534 L 19.343,6.889 c 0,0 1.069,1.69 1.248,3.468 C 16.2,14.747 8.37,21.19 7.767,23.57 c 0.023,0.674 0.24,1.028 0.423,1.58 z" fill="#ffffff" opacity="0.25" id="path980"/>
            <path d="m 13.26,28.257 c 2.03,-3.337 8.391,-3.224 11.932,-5.242 0.323,0.102 0.13,1.37 0.24,1.23 0.847,-1.09 2.926,-3.28 0.868,-6.875 0.522,5.958 -13.718,5.591 -15.89,10.305 -0.2,0.436 2.182,0.793 2.85,0.582 z" opacity="0.18" id="path982"/>
            <path d="M 25.8,23.781 C 24.787,29.594 16.255,29.898 14.812,36.422 17.645,30.016 25.574,30.708 25.8,23.781 Z" fill="#ffffff" opacity="0.25" id="path984"/>
            <path d="m 18.64,6.156 c 0,0 3.051,0.738 4.904,3.982 20.5,7.154 7.642,27.937 5.789,31.073 l 7.203,0.026 C 34.55,37.994 46.084,15.64 24.606,8.98 22.83,7.91 21.837,6.37 18.64,6.155 Z" opacity="0.18" id="path986"/>
            <path d="m 25,36.457 c 0,0 -9.13,0.048 -11.691,1.62 -1.727,1.06 -2.135,3.65 -1.9,6.323 h 27.182 c 0.235,-2.672 -0.172,-5.264 -1.9,-6.324 -2.56,-1.57 -11.69,-1.619 -11.69,-1.619 z" fill="#5f5955" stroke="#010101" stroke-linejoin="round" stroke-width="1.2" id="path988"/>
            <path d="m 25,37.147 c 0,0 -8.712,-0.137 -11.624,1.666 -0.37,0.229 -0.7,0.84 -0.954,1.39 0.261,-0.331 0.503,-0.613 0.887,-0.849 C 15.87,37.783 25,37.734 25,37.734 c 0,0 9.132,0.049 11.692,1.62 0.391,0.24 0.592,0.532 0.856,0.87 0.026,-0.076 -0.409,-1.158 -1.144,-1.596 C 33.648,37.136 25,37.148 25,37.148 Z" fill="#ffffff" opacity="0.25" id="path990"/>
        </g>
        <g id="br" transform="matrix(0.84246687,0,0,0.84246687,-1.1177673,-1.4608179)">
            <path d="m 17.932,20.414 c 4.906,-0.74 9.579,-0.578 14.136,0 M 14.183,9.662 c -1.06,8.767 1.103,10.677 3.748,10.752 L 14.616,38.573 H 35.383 L 32.067,20.414 c 2.645,-0.074 4.808,-1.985 3.749,-10.752 l -3.608,-0.53 -1.073,3.644 -3.142,-0.1 -0.522,-3.754 h -4.945 l -0.52,3.754 -3.143,0.1 -1.073,-3.643 z" fill="#5f5955" stroke-width="1.2" stroke="#010101" id="path1359"/>
            <path d="m 17.932,20.414 c 6.828,0 13.118,0.408 14.948,16.572 l 2.319,0.386 -3.131,-16.428 C 32.036,20.636 25.98,19.121 17.932,20.414 Z" opacity="0.18" id="path1361"/>
            <path d="m 14.777,10.219 2.277,-0.286 c -1.914,0.312 -2.313,5.296 -2.313,5.296 -0.238,-0.177 -0.188,-4.903 0.036,-5.01 z M 25.276,9.55 c -1.648,0 -2.52,2.748 -2.52,2.748 l 0.338,-2.729 z m 7.395,0.266 0.934,0.118 c -0.785,0.5 -1.59,1.989 -1.59,1.989 z m -14.199,11.148 2.62,-0.293 c -2.62,0.293 -4.895,13.053 -4.906,13.113 z" fill="#ffffff" opacity="0.25" id="path1363"/>
            <path d="m 34.013,9.398 c 0.357,6.363 -1.95,10.603 -8.041,10.536 l 4.777,0.563 c 7.523,0.31 5.101,-10.806 5.068,-10.835 z" opacity="0.18" id="path1365"/>
            <path d="m 25,36.457 c 0,0 -9.13,0.048 -11.691,1.62 -1.727,1.06 -2.135,3.65 -1.9,6.323 h 27.182 c 0.235,-2.672 -0.172,-5.264 -1.9,-6.324 -2.56,-1.57 -11.69,-1.619 -11.69,-1.619 z" fill="#5f5955" stroke-linejoin="round" stroke-width="1.2" stroke="#010101" id="path1367"/>
            <path d="m 25,37.146 c 0,0 -8.712,-0.137 -11.624,1.666 -0.37,0.229 -0.7,0.84 -0.954,1.39 0.261,-0.331 0.503,-0.613 0.887,-0.849 C 15.87,37.782 25,37.733 25,37.733 c 0,0 9.132,0.049 11.692,1.62 0.391,0.24 0.592,0.532 0.856,0.87 0.025,-0.076 -0.409,-1.158 -1.144,-1.596 C 33.648,37.135 25,37.147 25,37.147 Z" fill="#ffffff" opacity="0.25" id="path1369"/>
        </g>
        <g id="bp" transform="matrix(0.82029849,0,0,0.82029849,-0.5635331,-0.50702576)">
            <path d="m 21.503,27.594 h 6.994 M 19,17.508 c 0,1.732 0.712,3.387 1.966,4.587 l -3.65,2.1 0.43,3.399 h 4.306 c -0.794,3.559 -2.755,7.33 -5.062,8.617 -2.307,1.287 -5.3,3.097 -4.843,8.189 h 25.706 c 0.457,-5.092 -2.535,-6.902 -4.842,-8.189 -2.307,-1.286 -4.268,-5.058 -5.062,-8.617 h 4.306 l 0.43,-3.4 -3.65,-2.099 a 6.352,6.352 0 0 0 1.966,-4.587 c 0,-3.367 -2.628,-5.912 -6,-5.912 -3.373,0 -6.002,2.545 -6.001,5.912 z" fill="#5f5955" stroke-linejoin="round" stroke-width="1.2" stroke="#010101" id="path1131"/>
            <path d="m 24.962,11.537 c 1.17,-0.459 9.527,5.906 0.647,10.773 l 4.512,2.1 -0.562,3.125 h 2.659 l 0.428,-3.399 -3.65,-2.1 c 1.253,-1.2 1.962,-2.58 1.964,-4.312 -0.468,-5.416 -5.998,-6.186 -5.998,-6.186 z m -2.949,15.998 c 4.503,7.934 9.47,9.994 13.074,9.965 L 32.972,36.153 C 30.897,34.663 28.24,31.295 27.91,27.535 Z" opacity="0.18" id="path1133"/>
            <path d="m 21.983,22.213 -1.647,2.347 -2.356,-0.014 4.013,-2.324 z m 2.324,-9.946 c -2.542,0.138 -5.73,3.173 -4.385,6.918 l 0.199,0.643 c -0.33,-3.489 2.127,-7.116 4.186,-7.561 z m -6.444,25.358 c -3.984,2.305 -5.117,6.14 -5.117,6.14 -0.01,0 -0.548,-4.175 3.956,-6.654 4.504,-2.479 4.822,-6.15 5.86,-8.893 -0.636,3.704 -0.715,7.102 -4.699,9.407 z" fill="#ffffff" opacity="0.25" id="path1135"/>
        </g>
        <g id="markerFrame" transform="matrix(1.03,0,0,1.03,1.46,1.46)" fill="#000000" fill-opacity="0">
            <path d="M 0,10.588235 V 2.1176471 C 0,1.4117647 0.17647059,0.88235294 0.52941176,0.52941176 0.88235294,0.17647059 1.4117647,0 2.1176471,0 h 8.4705879" id="Path"/>
            <path d="m 25.411765,36 v -8.470588 c 0,-0.705883 0.17647,-1.235294 0.529411,-1.588236 0.352942,-0.352941 0.882353,-0.529411 1.588236,-0.529411 H 36" id="path1923" transform="rotate(180,30.705882,30.705882)"/>
            <path d="M 0,36 V 27.529412 C 0,26.823529 0.17647059,26.294118 0.52941176,25.941176 0.88235294,25.588235 1.4117647,25.411765 2.1176471,25.411765 h 8.4705879" id="path1925" transform="rotate(-90,5.294118,30.705882)"/>
            <path d="M 25.411765,10.588235 V 2.1176471 c 0,-0.7058824 0.17647,-1.23529416 0.529411,-1.58823534 C 26.294118,0.17647059 26.823529,0 27.529412,0 H 36" id="path1927" transform="rotate(90,30.705882,5.294118)"/>
        </g>
        <g id="markerCircle" fill="#000000" fill-opacity="0">
            <circle cx="20" cy="20" r="18"/>
        </g>
        <g id="markerDot">
            <circle cx="20" cy="20" r="8"/>
        </g>
        <g id="markerSquare">
            <rect x="0" y="0" width="40" height="40"/>
        </g>
    </g>
</svg>
